HIERARCHY
ROOT Hips
{
	OFFSET 0.000000 0.000000 0.000000
	CHANNELS 6 Xposition Yposition Zposition Zrotation Yrotation Xrotation 
	JOINT LHipJoint
	{
		OFFSET 0.000000 0.000000 0.000000
		CHANNELS 3 Zrotation Yrotation Xrotation
		JOINT LeftUpLeg
		{
			OFFSET 1.363060 -1.794630 0.839290
			CHANNELS 3 Zrotation Yrotation Xrotation
			JOINT LeftLeg
			{
				OFFSET 2.448110 -6.726130 0.000000
				CHANNELS 3 Zrotation Yrotation Xrotation
				JOINT LeftFoot
				{
					OFFSET 2.562200 -7.039590 0.000000
					CHANNELS 3 Zrotation Yrotation Xrotation
					JOINT LeftToeBase
					{
						OFFSET 0.157640 -0.433110 2.322550
						CHANNELS 3 Zrotation Yrotation Xrotation
						End Site
						{
							OFFSET 0.000000 0.000000 0.000000
						}
					}
				}
			}
		}
	}
	JOINT RHipJoint
	{
		OFFSET 0.000000 0.000000 0.000000
		CHANNELS 3 Zrotation Yrotation Xrotation
		JOINT RightUpLeg
		{
			OFFSET -1.305520 -1.794630 0.839290
			CHANNELS 3 Zrotation Yrotation Xrotation
			JOINT RightLeg
			{
				OFFSET -2.542530 -6.985550 0.000000
				CHANNELS 3 Zrotation Yrotation Xrotation
				JOINT RightFoot
				{
					OFFSET -2.568260 -7.056230 0.000000
					CHANNELS 3 Zrotation Yrotation Xrotation
					JOINT RightToeBase
					{
						OFFSET -0.164730 -0.452590 2.363150
						CHANNELS 3 Zrotation Yrotation Xrotation
						End Site
						{
							OFFSET 0.000000 0.000000 0.000000
						}
					}
				}
			}
		}
	}
}
MOTION
Frames: 22
Frame Time: 0.008333
2.458344 16.908157 -0.009928 44.730406 -88.737063 -42.488619 -9.473687 3.056394 2.953202 -3.403719 1.846455 -11.099502 -1.266925 0.466809 22.223210 2.342085 14.172865 -9.594793 -0.525701 0.000000 -46.989500 11.419217 -1.235228 -0.034687 1.368691 -11.230424 -9.227626 1.064818 -0.965891 26.332204 -1.969818 -8.404350 -11.572871 0.419600 0.000000 -66.684400
2.449749 16.907594 -0.010281 72.073068 -89.844745 -70.016706 -8.902141 2.925620 2.624551 -3.275248 2.718349 -10.359061 -1.213439 0.347805 21.954404 2.403453 14.615457 -9.575731 -0.534400 0.000001 -46.857999 12.002403 -1.417946 0.226872 1.472144 -10.357272 -9.268500 1.127229 -1.106680 26.398890 -1.899196 -8.021706 -11.575197 0.406001 0.000000 -66.855800
2.439850 16.909332 -0.009535 107.029007 -89.932020 -105.119499 -8.879420 2.424527 2.257113 -3.302985 3.492942 -9.571650 -1.058333 0.115658 21.646739 2.433660 14.967077 -9.465916 -0.526600 -0.000000 -46.748400 12.044351 -1.950112 0.495792 1.397593 -9.612950 -9.342581 1.308308 -1.373895 26.328978 -1.846541 -7.691317 -11.566856 0.383600 -0.000000 -67.029300
2.429287 16.913004 -0.010057 139.573740 -88.035361 -137.832824 -9.649376 2.022361 1.829852 -3.861939 5.358079 -8.522621 -0.974660 -0.063675 20.747503 2.442908 15.356066 -9.141842 -0.466200 -0.000001 -46.767400 11.321793 -2.394491 0.900128 0.758395 -7.724563 -9.547553 1.383948 -1.582351 26.567642 -1.809679 -7.350946 -11.650436 0.369300 -0.000000 -67.067800
2.416814 16.919170 -0.007376 149.670612 -86.289538 -148.102574 -10.075184 2.059272 1.680142 -4.081942 6.518662 -7.817019 -0.973931 -0.074002 20.069219 2.492601 15.840334 -8.927490 -0.414900 0.000000 -46.728400 10.920540 -2.439346 1.090996 0.437020 -6.671692 -9.500264 1.372944 -1.568166 26.496255 -1.712236 -6.791809 -11.515967 0.331400 0.000000 -67.259900
2.403103 16.927524 -0.004164 155.967388 -84.454221 -154.572190 -10.353181 2.176734 1.532836 -4.211229 7.766501 -7.108460 -0.993247 -0.070556 19.297776 2.537636 16.294510 -8.655260 -0.340300 -0.000000 -46.723001 10.665706 -2.424834 1.295527 0.197731 -5.588140 -9.426979 1.348287 -1.522875 26.338760 -1.604962 -6.201245 -11.321355 0.288200 0.000000 -67.467299
2.388155 16.937969 -0.000717 160.209479 -82.607141 -158.976953 -10.541321 2.321235 1.380344 -4.271858 9.083315 -6.398397 -1.019734 -0.070161 18.447833 2.572763 16.699396 -8.316109 -0.240600 -0.000000 -46.756800 10.500519 -2.400178 1.517508 0.015599 -4.497227 -9.342579 1.325991 -1.467475 26.092094 -1.491992 -5.594345 -11.075304 0.241600 0.000000 -67.685200
2.372106 16.950376 0.002765 163.236447 -80.767829 -162.152690 -10.679307 2.475004 1.223252 -4.281815 10.461730 -5.691116 -1.049938 -0.076554 17.529317 2.595678 17.047303 -7.906927 -0.115200 -0.000000 -46.831199 10.386260 -2.380971 1.755147 -0.131469 -3.411822 -9.254330 1.310444 -1.408072 25.762141 -1.374419 -4.972999 -10.781593 0.193400 0.000000 -67.913999
2.355173 16.964536 0.006336 165.496092 -78.940974 -164.545255 -10.790093 2.631889 1.064074 -4.252220 11.893035 -4.992481 -1.082969 -0.090003 16.551281 2.605875 17.337418 -7.428586 0.035000 -0.000000 -46.946100 10.300484 -2.371846 2.006350 -0.256766 -2.339301 -9.169390 1.302725 -1.346317 25.355298 -1.252574 -4.336737 -10.441480 0.145100 0.000000 -68.157899
2.337490 16.980245 0.009764 167.236664 -77.123136 -166.399360 -10.887309 2.791298 0.904573 -4.191147 13.375798 -4.312918 -1.119769 -0.109000 15.529185 2.602476 17.565126 -6.882324 0.208800 0.000000 -47.105200 10.230171 -2.372774 2.270845 -0.369614 -1.276195 -9.095165 1.301984 -1.282155 24.882397 -1.127954 -3.690963 -10.062023 0.098900 0.000000 -68.408100
2.319397 16.997290 0.013100 168.613223 -75.314597 -167.868454 -10.979060 2.952420 0.746717 -4.103434 14.898886 -3.661327 -1.160772 -0.132172 14.478891 2.585878 17.731084 -6.273334 0.403100 -0.000000 -47.307600 10.167324 -2.383127 2.547039 -0.474398 -0.223674 -9.038023 1.307725 -1.215708 24.352064 -1.001416 -3.039152 -9.645871 0.056500 -0.000000 -68.663100
2.301278 17.015411 0.016313 169.725108 -73.515831 -169.051155 -11.070482 3.115006 0.591790 -3.992675 16.449194 -3.045639 -1.206437 -0.157705 13.419472 2.556931 17.837155 -5.608741 0.614100 -0.000001 -47.555000 10.106723 -2.401204 2.832921 -0.573411 0.818918 -9.002448 1.319273 -1.146987 23.773601 -0.874160 -2.386687 -9.197918 0.019200 0.000000 -68.919100
2.283278 17.034399 0.019604 170.648542 -71.730916 -170.019343 -11.164809 3.277428 0.442183 -3.861276 18.005807 -2.474512 -1.256318 -0.184700 12.368794 2.517724 17.890671 -4.900327 0.836499 -0.000000 -47.839700 10.044351 -2.426506 3.127235 -0.664884 1.852157 -8.994580 1.336496 -1.076301 23.154321 -0.747402 -1.739996 -8.720218 -0.011800 -0.000001 -69.174500
2.265663 17.054023 0.023023 171.433087 -69.963711 -170.820136 -11.263825 3.438591 0.299233 -3.712516 19.547301 -1.954402 -1.310029 -0.211627 11.346472 2.470522 17.899360 -4.160281 1.065300 0.000000 -48.158700 9.977631 -2.457206 3.427233 -0.747374 2.876415 -9.015902 1.358935 -1.003918 22.502853 -0.622568 -1.106726 -8.217431 -0.035600 -0.000001 -69.425400
2.248949 17.074013 0.026664 172.113948 -68.220545 -171.490009 -11.368095 3.596492 0.164299 -3.549537 21.048664 -1.489716 -1.366442 -0.237255 10.370121 2.418309 17.874796 -3.402802 1.295300 -0.000000 -48.504800 9.904885 -2.491439 3.729787 -0.818231 3.890874 -9.066863 1.386298 -0.930343 21.826417 -0.500911 -0.494264 -7.692775 -0.051799 0.000000 -69.670200
2.233262 17.094148 0.030655 172.720829 -66.509277 -172.055616 -11.477331 3.749086 0.038833 -3.376614 22.484084 -1.083635 -1.424033 -0.260702 9.454636 2.364442 17.830754 -2.643134 1.522100 -0.000000 -48.869600 9.825118 -2.527603 4.031628 -0.874648 4.893903 -9.146186 1.418418 -0.856054 21.131713 -0.383590 0.090277 -7.149944 -0.060301 0.000000 -69.907400
2.218977 17.114197 0.035057 173.272617 -64.838990 -172.537061 -11.590404 3.894053 -0.076105 -3.198000 23.829402 -0.738065 -1.480980 -0.281192 8.612686 2.312243 17.781548 -1.896894 1.742000 -0.000000 -49.242200 9.738237 -2.563861 4.329201 -0.914297 5.882900 -9.250738 1.454977 -0.781692 20.425323 -0.271596 0.640388 -6.592147 -0.061300 0.000000 -70.136100
2.206324 17.133949 0.039964 173.782842 -63.219851 -172.948932 -11.705437 4.029396 -0.179705 -3.019607 25.063768 -0.453362 -1.535372 -0.298167 7.853322 2.264811 17.741513 -1.178023 1.952600 0.000000 -49.615100 9.645067 -2.598430 4.618890 -0.936494 6.853244 -9.376740 1.495574 -0.707902 19.713990 -0.165663 1.151243 -6.023477 -0.055400 0.000001 -70.355401
2.195477 17.153230 0.045426 174.261945 -61.662879 -173.303034 -11.820421 4.153332 -0.271832 -2.846087 26.173995 -0.230286 -1.585648 -0.311265 7.184107 2.224406 17.720885 -0.500325 2.152000 0.000000 -49.975500 9.546893 -2.629919 4.897493 -0.940990 7.799519 -9.519319 1.539756 -0.635227 19.003037 -0.066273 1.619339 -5.447082 -0.043500 -0.000000 -70.564600
2.186655 17.171858 0.051483 174.713676 -60.179968 -173.606540 -11.932754 4.264644 -0.352729 -2.683029 27.152303 -0.068480 -1.630551 -0.320269 6.608558 2.192708 17.728386 0.126708 2.339399 0.000000 -50.317700 9.445991 -2.656987 5.161892 -0.929597 8.714125 -9.673451 1.586796 -0.564231 18.298200 0.026312 2.043034 -4.867117 -0.026400 0.000001 -70.763201
2.180011 17.189711 0.058138 175.139787 -58.782814 -173.865116 -12.039797 4.362655 -0.423294 -2.535598 27.999260 0.032201 -1.669538 -0.325165 6.127914 2.170449 17.768008 0.695570 2.514400 0.000000 -50.635400 9.345167 -2.678761 5.409347 -0.905633 9.587747 -9.833793 1.635791 -0.495393 17.604437 0.112121 2.422756 -4.287105 -0.005200 0.000001 -70.950200
2.175556 17.206766 0.065440 175.541890 -57.483281 -174.084377 -12.139278 4.447222 -0.485181 -2.406740 28.724529 0.071566 -1.702925 -0.326064 5.742012 2.157237 17.837551 1.200962 2.675800 0.000000 -50.920300 9.247292 -2.694828 5.637575 -0.872212 10.409692 -9.994828 1.685894 -0.428913 16.924747 0.191346 2.760276 -3.710638 0.019100 0.000000 -71.125300
